<svg  xmlns="http://www.w3.org/2000/svg" xmlns:xlink="http://www.w3.org/1999/xlink" height="128" width="128" viewBox="0 0 29 29"><path fill="#FFFFFF" d="M0,0 h29v29H0z" shape-rendering="crispEdges"></path><path fill="#000000" d="M0 0h7v1H0zM9 0h3v1H9zM13 0h1v1H13zM15 0h5v1H15zM22,0 h7v1H22zM0 1h1v1H0zM6 1h1v1H6zM9 1h1v1H9zM13 1h3v1H13zM17 1h1v1H17zM22 1h1v1H22zM28,1 h1v1H28zM0 2h1v1H0zM2 2h3v1H2zM6 2h1v1H6zM8 2h1v1H8zM12 2h1v1H12zM15 2h1v1H15zM18 2h1v1H18zM22 2h1v1H22zM24 2h3v1H24zM28,2 h1v1H28zM0 3h1v1H0zM2 3h3v1H2zM6 3h1v1H6zM8 3h1v1H8zM11 3h1v1H11zM14 3h1v1H14zM16 3h2v1H16zM20 3h1v1H20zM22 3h1v1H22zM24 3h3v1H24zM28,3 h1v1H28zM0 4h1v1H0zM2 4h3v1H2zM6 4h1v1H6zM8 4h1v1H8zM17 4h4v1H17zM22 4h1v1H22zM24 4h3v1H24zM28,4 h1v1H28zM0 5h1v1H0zM6 5h1v1H6zM8 5h1v1H8zM10 5h1v1H10zM12 5h1v1H12zM15 5h1v1H15zM22 5h1v1H22zM28,5 h1v1H28zM0 6h7v1H0zM8 6h1v1H8zM10 6h1v1H10zM12 6h1v1H12zM14 6h1v1H14zM16 6h1v1H16zM18 6h1v1H18zM20 6h1v1H20zM22,6 h7v1H22zM8 7h1v1H8zM11 7h1v1H11zM14 7h1v1H14zM18 7h1v1H18zM0 8h1v1H0zM2 8h5v1H2zM10 8h1v1H10zM13 8h2v1H13zM17 8h1v1H17zM20 8h1v1H20zM22 8h5v1H22zM2 9h1v1H2zM4 9h2v1H4zM7 9h1v1H7zM15 9h10v1H15zM28,9 h1v1H28zM0 10h3v1H0zM4 10h3v1H4zM9 10h1v1H9zM13 10h1v1H13zM15 10h2v1H15zM18 10h1v1H18zM20 10h1v1H20zM23 10h1v1H23zM0 11h4v1H0zM7 11h2v1H7zM11 11h2v1H11zM15 11h1v1H15zM23 11h3v1H23zM27 11h1v1H27zM1 12h2v1H1zM6 12h1v1H6zM8 12h1v1H8zM11 12h1v1H11zM16 12h2v1H16zM23 12h1v1H23zM25 12h2v1H25zM0 13h2v1H0zM3 13h1v1H3zM7 13h1v1H7zM9 13h3v1H9zM13 13h1v1H13zM16 13h5v1H16zM22 13h3v1H22zM28,13 h1v1H28zM0 14h3v1H0zM4 14h1v1H4zM6 14h1v1H6zM9 14h1v1H9zM11 14h7v1H11zM21 14h1v1H21zM23 14h1v1H23zM25 14h2v1H25zM0 15h2v1H0zM7 15h1v1H7zM11 15h1v1H11zM13 15h1v1H13zM15 15h1v1H15zM18 15h6v1H18zM27 15h1v1H27zM0 16h1v1H0zM2 16h2v1H2zM5 16h3v1H5zM10 16h3v1H10zM14 16h4v1H14zM19 16h1v1H19zM25 16h2v1H25zM0 17h2v1H0zM3 17h1v1H3zM8 17h1v1H8zM11 17h1v1H11zM15 17h5v1H15zM21 17h4v1H21zM26 17h1v1H26zM28,17 h1v1H28zM0 18h1v1H0zM3 18h1v1H3zM6 18h1v1H6zM8 18h1v1H8zM10 18h1v1H10zM12 18h1v1H12zM15 18h4v1H15zM20 18h2v1H20zM24 18h1v1H24zM26 18h1v1H26zM0 19h1v1H0zM2 19h1v1H2zM8 19h2v1H8zM12 19h1v1H12zM14 19h2v1H14zM23 19h1v1H23zM27 19h1v1H27zM0 20h1v1H0zM3 20h2v1H3zM6 20h2v1H6zM10 20h1v1H10zM12 20h1v1H12zM15 20h1v1H15zM17 20h2v1H17zM20 20h5v1H20zM26,20 h3v1H26zM8 21h2v1H8zM12 21h3v1H12zM16 21h3v1H16zM20 21h1v1H20zM24,21 h5v1H24zM0 22h7v1H0zM9 22h1v1H9zM13 22h3v1H13zM17 22h1v1H17zM19 22h2v1H19zM22 22h1v1H22zM24 22h3v1H24zM0 23h1v1H0zM6 23h1v1H6zM8 23h1v1H8zM10 23h2v1H10zM13 23h1v1H13zM15 23h1v1H15zM19 23h2v1H19zM24 23h1v1H24zM28,23 h1v1H28zM0 24h1v1H0zM2 24h3v1H2zM6 24h1v1H6zM8 24h2v1H8zM11 24h1v1H11zM14 24h1v1H14zM16 24h2v1H16zM20 24h5v1H20zM26 24h1v1H26zM0 25h1v1H0zM2 25h3v1H2zM6 25h1v1H6zM8 25h2v1H8zM11 25h2v1H11zM16 25h3v1H16zM20 25h1v1H20zM25,25 h4v1H25zM0 26h1v1H0zM2 26h3v1H2zM6 26h1v1H6zM8 26h1v1H8zM11 26h1v1H11zM13 26h6v1H13zM22 26h6v1H22zM0 27h1v1H0zM6 27h1v1H6zM9 27h1v1H9zM12 27h3v1H12zM16 27h1v1H16zM19 27h2v1H19zM25 27h1v1H25zM27 27h1v1H27zM0 28h7v1H0zM8 28h1v1H8zM10 28h1v1H10zM12 28h1v1H12zM14 28h3v1H14zM19 28h1v1H19zM23 28h2v1H23zM26 28h1v1H26z" shape-rendering="crispEdges"></path></svg>