<svg width="29" height="28" viewBox="0 0 29 28" fill="none" xmlns="http://www.w3.org/2000/svg">
<path d="M22.0832 11.5327C22.0832 11.5327 22.6665 13.5465 22.6665 16.9169C22.6665 20.2873 22.2128 23.2364 21.7591 23.6577C21.3054 24.079 18.1295 24.5002 14.4998 24.5002C10.8702 24.5002 7.69429 24.079 7.24058 23.6577C6.78688 23.2364 6.33317 20.2873 6.33317 16.9169C6.33317 13.5465 6.9165 11.5327 6.9165 11.5327M22.0832 11.5327C22.4418 11.5133 22.6874 11.4928 22.7961 11.4725C23.3147 11.3752 23.8332 10.6947 23.8332 9.9169C23.8332 9.13912 23.3147 8.45857 22.7961 8.36135C22.2777 8.26412 18.648 8.1669 14.4998 8.1669C10.3517 8.1669 6.72206 8.26412 6.20354 8.36135C5.68502 8.45857 5.1665 9.13912 5.1665 9.9169C5.1665 10.6947 5.68502 11.3752 6.20354 11.4725C6.3123 11.4928 6.55793 11.5133 6.9165 11.5327M22.0832 11.5327C20.7322 11.6062 17.7779 11.6669 14.4998 11.6669C11.2217 11.6669 8.26748 11.6062 6.9165 11.5327M14.3434 7.99187C14.984 5.60147 18.6555 1.46073 20.4056 4.49187C22.1557 7.52315 16.734 8.63256 14.3434 7.99187ZM14.5725 7.99187C13.9319 5.60147 10.2604 1.46073 8.51037 4.49187C6.76025 7.52315 12.1819 8.63256 14.5725 7.99187Z" stroke="#323232" stroke-width="1.5" stroke-linecap="round" stroke-linejoin="round"/>
<path d="M23.8333 25.6668L21.4709 23.3044M21.4709 23.3044C21.8501 22.9252 22.1509 22.475 22.3561 21.9796C22.5613 21.4842 22.6669 20.9532 22.6669 20.4169C22.6669 19.8807 22.5613 19.3497 22.3561 18.8543C22.1509 18.3589 21.8501 17.9087 21.4709 17.5295C21.0917 17.1503 20.6415 16.8495 20.1461 16.6443C19.6507 16.4391 19.1197 16.3335 18.5834 16.3335C18.0472 16.3335 17.5162 16.4391 17.0208 16.6443C16.5254 16.8495 16.0752 17.1503 15.696 17.5295C14.9302 18.2953 14.5 19.3339 14.5 20.4169C14.5 21.4999 14.9302 22.5386 15.696 23.3044C16.4618 24.0702 17.5005 24.5004 18.5834 24.5004C19.6664 24.5004 20.7051 24.0702 21.4709 23.3044Z" stroke="white" stroke-width="3.5" stroke-linecap="round" stroke-linejoin="round"/>
<path d="M23.8333 25.6668L21.4709 23.3044M21.4709 23.3044C21.8501 22.9252 22.1509 22.475 22.3561 21.9796C22.5613 21.4842 22.6669 20.9532 22.6669 20.4169C22.6669 19.8807 22.5613 19.3497 22.3561 18.8543C22.1509 18.3589 21.8501 17.9087 21.4709 17.5295C21.0917 17.1503 20.6415 16.8495 20.1461 16.6443C19.6507 16.4391 19.1197 16.3335 18.5834 16.3335C18.0472 16.3335 17.5162 16.4391 17.0208 16.6443C16.5254 16.8495 16.0752 17.1503 15.696 17.5295C14.9302 18.2953 14.5 19.3339 14.5 20.4169C14.5 21.4999 14.9302 22.5386 15.696 23.3044C16.4618 24.0702 17.5005 24.5004 18.5834 24.5004C19.6664 24.5004 20.7051 24.0702 21.4709 23.3044Z" stroke="#323232" stroke-width="1.5" stroke-linecap="round" stroke-linejoin="round"/>
</svg>
