<svg width="28" height="28" viewBox="0 0 28 28" fill="none" xmlns="http://www.w3.org/2000/svg">
<path d="M15.6607 4H3.33929C2.59962 4 2 4.44772 2 5C2 5.55228 2.59962 6 3.33929 6H15.6607C16.4004 6 17 5.55228 17 5C17 4.44772 16.4004 4 15.6607 4Z" fill="#323232"/>
<path d="M20.6111 11H3.38889C2.62183 11 2 11.4477 2 12C2 12.5523 2.62183 13 3.38889 13H20.6111C21.3782 13 22 12.5523 22 12C22 11.4477 21.3782 11 20.6111 11Z" fill="#323232"/>
<path d="M15.6607 18H3.33929C2.59962 18 2 18.4477 2 19C2 19.5523 2.59962 20 3.33929 20H15.6607C16.4004 20 17 19.5523 17 19C17 18.4477 16.4004 18 15.6607 18Z" fill="#323232"/>
</svg>
