<svg width="28" height="28" viewBox="0 0 28 28" fill="none" xmlns="http://www.w3.org/2000/svg">
<path d="M21 21.8193C21 18.2824 16.9167 17.5 14 17.5C11.0833 17.5 7 18.2824 7 21.8193M24.5 14C24.5 19.799 19.799 24.5 14 24.5C8.20101 24.5 3.5 19.799 3.5 14C3.5 8.20101 8.20101 3.5 14 3.5C19.799 3.5 24.5 8.20101 24.5 14ZM17.5 10.5C17.5 12.433 15.933 14 14 14C12.0669 14 10.5 12.433 10.5 10.5C10.5 8.56701 12.0669 7 14 7C15.933 7 17.5 8.56701 17.5 10.5Z" stroke="#323232" stroke-width="1.5" stroke-linecap="round" stroke-linejoin="round"/>
</svg>
