<svg width="28" height="28" viewBox="0 0 28 28" fill="none" xmlns="http://www.w3.org/2000/svg">
<path d="M21 7V7.00647" stroke="#323232" stroke-width="1.5" stroke-linecap="round" stroke-linejoin="round"/>
<path d="M20.9997 15.166L16.9163 9.33265C16.5233 8.62219 16.3223 7.82146 16.3334 7.00957C16.3446 6.19769 16.5673 5.40276 16.9797 4.70332C17.392 4.00387 17.9798 3.42412 18.6848 3.02136C19.3898 2.61859 20.1877 2.40674 20.9997 2.40674C21.8116 2.40674 22.6095 2.61859 23.3146 3.02136C24.0196 3.42412 24.6073 4.00387 25.0197 4.70332C25.4321 5.40276 25.6548 6.19769 25.6659 7.00957C25.677 7.82146 25.4761 8.62219 25.083 9.33265L20.9997 15.166Z" stroke="#323232" stroke-width="1.5" stroke-linecap="round" stroke-linejoin="round"/>
<path d="M12.25 5.54004L10.5 4.66504L3.5 8.16504V23.3317L10.5 19.8317L17.5 23.3317L24.5 19.8317V17.4984" stroke="#323232" stroke-width="1.5" stroke-linecap="round" stroke-linejoin="round"/>
<path d="M10.5 4.66504V19.8317" stroke="#323232" stroke-width="1.5" stroke-linecap="round" stroke-linejoin="round"/>
<path d="M17.5 17.5V23.3333" stroke="#323232" stroke-width="1.5" stroke-linecap="round" stroke-linejoin="round"/>
</svg>
